<?xml version="1.0" encoding="utf-8"?>
<!-- Generator: Adobe Illustrator 23.0.0, SVG Export Plug-In . SVG Version: 6.00 Build 0)  -->
<svg version="1.1" xmlns="http://www.w3.org/2000/svg" xmlns:xlink="http://www.w3.org/1999/xlink" x="0px" y="0px"
	 viewBox="0 0 512 512" style="enable-background:new 0 0 512 512;" xml:space="preserve">
<style type="text/css">
	.st0{fill:#1DA1F2;stroke:#FFFFFF;stroke-width:44;stroke-miterlimit:10;}
	.st1{fill:#FFFFFF;}
	.st2{fill:#1DA1F2;}
</style>
<g id="Layer_2">
	<path class="st0" d="M489,266.9c0,16.3-3.9,31.4-11.7,45.2c-7.8,13.8-18.3,24.7-31.5,32.2c0.4,2.5,0.5,6.3,0.5,11.5
		c0,24.7-8.3,45.6-24.7,62.9c-16.5,17.4-36.3,26-59.5,26c-10.4,0-20.3-1.9-29.7-5.7c-7.3,14.9-17.7,26.9-31.5,36.1
		c-13.7,9.3-28.7,13.8-45,13.8c-16.7,0-31.8-4.5-45.2-13.6c-13.6-9-23.9-21.1-31.2-36.4c-9.4,3.8-19.2,5.7-29.7,5.7
		c-23.2,0-43.1-8.6-59.8-26c-16.7-17.3-24.9-38.3-24.9-62.9c0-2.7,0.4-6.6,1-11.5c-13.2-7.6-23.7-18.4-31.5-32.2
		C26.9,298.3,23,283.2,23,266.9c0-17.3,4.4-33.2,13-47.6c8.6-14.4,20.3-25,34.9-31.9c-3.8-10.4-5.7-20.8-5.7-31.2
		c0-24.6,8.3-45.6,24.9-62.9s36.6-26,59.8-26c10.4,0,20.3,1.9,29.7,5.7C186.8,58,197.3,46,211,36.8c13.7-9.2,28.7-13.8,45-13.8
		s31.3,4.6,45,13.7c13.7,9.2,24.2,21.2,31.5,36.1c9.4-3.8,19.2-5.7,29.7-5.7c23.2,0,43.1,8.6,59.5,26s24.7,38.3,24.7,62.9
		c0,11.5-1.7,21.8-5.2,31.2c14.6,6.9,26.2,17.6,34.9,31.9C484.6,233.7,489,249.6,489,266.9z M246.1,337.1L342.3,193
		c2.5-3.8,3.2-8,2.4-12.5c-0.9-4.5-3.2-8-7-10.4c-3.8-2.5-8-3.3-12.5-2.6c-4.6,0.7-8.2,2.9-10.9,6.7l-84.7,127.4l-39-39
		c-3.5-3.5-7.5-5.1-11.9-4.9c-4.6,0.2-8.5,1.8-11.9,4.9c-3.1,3.1-4.6,7-4.6,11.7c0,4.6,1.5,8.6,4.6,11.7l53.6,53.6l2.6,2.1
		c3.1,2.1,6.3,3.1,9.4,3.1C238.3,344.9,243,342.4,246.1,337.1z"/>
</g>
<g id="Layer_1">
	<g id="_x3C_Group_x3E_">
		<rect x="138" y="151" class="st1" width="231" height="210"/>
		<path class="st2" d="M466,265.8c0,14.7-3.5,28.3-10.6,40.8c-7.1,12.5-16.5,22.2-28.4,29c0.3,2.2,0.5,5.7,0.5,10.3
			c0,22.2-7.5,41.1-22.2,56.7c-14.8,15.7-32.7,23.5-53.6,23.5c-9.4,0-18.3-1.7-26.7-5.2c-6.6,13.5-16,24.3-28.4,32.6
			c-12.3,8.4-25.8,12.5-40.5,12.5c-15,0-28.6-4-40.8-12.2c-12.2-8.1-21.6-19-28.1-32.8c-8.4,3.4-17.3,5.2-26.7,5.2
			c-20.9,0-38.9-7.8-53.9-23.5C91.4,387.1,84,368.1,84,346c0-2.5,0.3-5.9,0.9-10.3c-11.9-6.9-21.3-16.6-28.4-29
			c-7-12.5-10.5-26.1-10.5-40.8c0-15.6,3.9-29.9,11.7-42.9s18.3-22.6,31.4-28.8c-3.4-9.4-5.2-18.8-5.2-28.1
			c0-22.1,7.5-41.1,22.5-56.7s33-23.5,53.9-23.5c9.4,0,18.3,1.7,26.7,5.2c6.6-13.5,16-24.3,28.4-32.6C227.8,50.2,241.3,46,256,46
			s28.2,4.2,40.5,12.4c12.3,8.3,21.8,19.1,28.4,32.6c8.4-3.4,17.3-5.2,26.7-5.2c20.9,0,38.8,7.8,53.6,23.5s22.2,34.5,22.2,56.7
			c0,10.3-1.6,19.7-4.7,28.1c13.1,6.2,23.6,15.8,31.4,28.8C462.1,235.9,466,250.3,466,265.8z M247.1,329.1l86.7-129.9
			c2.2-3.4,2.9-7.2,2.1-11.2c-0.8-4-2.9-7.2-6.3-9.4c-3.4-2.2-7.2-3-11.2-2.4c-4.1,0.7-7.4,2.6-9.8,6.1l-76.4,114.8l-35.2-35.1
			c-3.1-3.1-6.7-4.6-10.7-4.4c-4.1,0.2-7.6,1.6-10.7,4.4c-2.8,2.8-4.2,6.3-4.2,10.6c0,4.2,1.4,7.7,4.2,10.6l48.3,48.3l2.4,1.9
			c2.8,1.9,5.7,2.8,8.4,2.8C240.1,336.1,244.3,333.8,247.1,329.1z"/>
	</g>
</g>
</svg>
